<?xml version="1.0" standalone="no"?>
<!DOCTYPE svg PUBLIC "-//W3C//DTD SVG 20010904//EN"
 "http://www.w3.org/TR/2001/REC-SVG-20010904/DTD/svg10.dtd">
<svg version="1.0" xmlns="http://www.w3.org/2000/svg"
 width="113.000000pt" height="113.000000pt" viewBox="0 0 113.000000 113.000000"
 preserveAspectRatio="xMidYMid meet">
<metadata>
Created by potrace 1.14, written by Peter Selinger 2001-2017
</metadata>
<g transform="translate(0.000000,113.000000) scale(0.100000,-0.100000)"
fill="#000000" stroke="none">
<path d="M435 1104 c-193 -45 -358 -208 -410 -404 -14 -52 -15 -218 -2 -265
53 -196 195 -345 383 -403 124 -38 281 -24 396 34 l49 25 21 -27 c12 -14 36
-33 54 -40 32 -13 180 -22 190 -11 4 4 8 991 4 1095 0 9 -35 12 -139 12 l-140
0 1 -30 c1 -40 -5 -44 -39 -27 -97 50 -254 68 -368 41z m150 -220 c33 -22 48
-71 34 -112 -20 -59 -74 -69 -121 -22 -27 27 -30 36 -25 73 9 68 60 95 112 61z
m-175 -84 c44 -44 47 -98 9 -139 -28 -30 -65 -26 -100 8 -36 36 -39 86 -8 125
25 32 70 35 99 6z m361 -13 c59 -45 42 -148 -26 -158 -54 -8 -98 64 -74 122
17 44 67 61 100 36z m-85 -219 c112 -58 144 -87 144 -127 0 -54 -19 -65 -122
-71 l-94 -6 -58 -58 c-52 -52 -61 -57 -88 -52 -29 6 -56 29 -58 51 -1 6 -3 19
-5 29 -2 11 5 45 16 75 12 31 28 80 36 109 20 65 55 102 98 102 19 0 72 -21
131 -52z m-350 20 c25 -12 44 -48 44 -81 -1 -60 -79 -83 -125 -36 -42 42 -38
111 7 128 24 9 37 7 74 -11z"/>
</g>
</svg>
